<?xml version="1.0" standalone="no"?>
<!DOCTYPE svg PUBLIC "-//W3C//DTD SVG 1.1//EN" "http://www.w3.org/Graphics/SVG/1.1/DTD/svg11.dtd">
<svg xmlns="http://www.w3.org/2000/svg" viewBox="0 0 151.45 149.28" width="151.4499969482422" height="149.27999877929688"><defs><style>.cls-1{fill:#1b81b1;}</style></defs><g id="Шар_2" data-name="Шар 2"><g id="Слой_1" data-name="Слой 1"><path class="cls-1" d="M114.07,125.62a17.65,17.65,0,0,1,4.84-13.32,18.27,18.27,0,0,1,13-6.2,18.06,18.06,0,0,1,19.56,17.46,18.27,18.27,0,0,1-4.62,13.65,17.87,17.87,0,0,1-12.89,6.13,19,19,0,0,1-19.84-17.72Z"/><path class="cls-1" d="M60.62,128.57a17.7,17.7,0,0,1,4.85-13.32,18.3,18.3,0,0,1,13-6.21,18.77,18.77,0,0,1,14.94,31.12,17.87,17.87,0,0,1-12.89,6.13,19,19,0,0,1-19.85-17.72Z"/><path class="cls-1" d="M6.92,131.53a17.65,17.65,0,0,1,4.84-13.32,18.32,18.32,0,0,1,13-6.21,18.06,18.06,0,0,1,19.56,17.47,18.3,18.3,0,0,1-4.62,13.65,17.85,17.85,0,0,1-12.89,6.13,18.15,18.15,0,0,1-13.55-4.82A18,18,0,0,1,6.92,131.53Z"/><path class="cls-1" d="M4,78.49A17.72,17.72,0,0,1,8.84,65.17a18.29,18.29,0,0,1,13-6.2A18.08,18.08,0,0,1,41.35,76.44a18.26,18.26,0,0,1-4.62,13.64,17.8,17.8,0,0,1-12.89,6.13A18.12,18.12,0,0,1,10.28,91.4,18.09,18.09,0,0,1,4,78.49Z"/><path class="cls-1" d="M57.7,75.53a17.67,17.67,0,0,1,4.84-13.31A18.3,18.3,0,0,1,75.5,56,18.06,18.06,0,0,1,95.05,73.48a18.3,18.3,0,0,1-4.61,13.64,17.82,17.82,0,0,1-12.89,6.13A19,19,0,0,1,57.7,75.53Z"/><path class="cls-1" d="M108.22,19.56a17.69,17.69,0,0,1,4.84-13.32A18.29,18.29,0,0,1,126,0,18,18,0,0,1,145.57,17.5,18.32,18.32,0,0,1,141,31.15a17.89,17.89,0,0,1-12.89,6.13,18.17,18.17,0,0,1-13.56-4.82A18,18,0,0,1,108.22,19.56Z"/><path class="cls-1" d="M131,91.34a20,20,0,0,1-20.93-18.68,18.81,18.81,0,0,1,5.11-14.09,20.08,20.08,0,0,1,27.94-1.73,19.06,19.06,0,0,1,6.37,13.64,19.38,19.38,0,0,1-4.88,14.38A19,19,0,0,1,131,91.34Zm-1.93-35.08a15,15,0,0,0-10.74,5.16,14.44,14.44,0,0,0-4,11,15.77,15.77,0,0,0,16.46,14.69,14.67,14.67,0,0,0,10.67-5.06,15.12,15.12,0,0,0,3.81-11.33,14.9,14.9,0,0,0-16.18-14.46Z"/><path class="cls-1" d="M74.8,41.12A19.3,19.3,0,0,1,60.49,36a19.15,19.15,0,0,1-6.62-13.62A18.74,18.74,0,0,1,59,8.35,19.36,19.36,0,0,1,72.63,1.81,19.14,19.14,0,0,1,93.29,20.25a19.36,19.36,0,0,1-4.88,14.37A18.93,18.93,0,0,1,74.8,41.12ZM72.87,6A15,15,0,0,0,62.12,11.2a14.44,14.44,0,0,0-4,11,14.84,14.84,0,0,0,5.21,10.69,14.92,14.92,0,0,0,11.25,4,14.59,14.59,0,0,0,10.66-5.07A15,15,0,0,0,89,20.49,14.88,14.88,0,0,0,72.87,6Z"/><path class="cls-1" d="M21,44.08A19.25,19.25,0,0,1,6.65,39,19.15,19.15,0,0,1,0,25.39,18.74,18.74,0,0,1,5.14,11.32,19.33,19.33,0,0,1,18.8,4.78,19.12,19.12,0,0,1,39.45,23.22a19.31,19.31,0,0,1-4.88,14.37A18.92,18.92,0,0,1,21,44.08ZM19,9A15.06,15.06,0,0,0,8.28,14.16a14.47,14.47,0,0,0-4,11A14.84,14.84,0,0,0,9.48,35.85a14.91,14.91,0,0,0,11.25,4,14.62,14.62,0,0,0,10.66-5.06,15.06,15.06,0,0,0,3.82-11.34A14.9,14.9,0,0,0,19,9Z"/></g></g></svg>